<svg width="100%" height="4px" viewBox="0 0 1440 4" xmlns="http://www.w3.org/2000/svg">
  <rect width="1440" height="4" fill="#050505"/>
  <path d="M0,2 L50,2 L60,1.8 L100,2.2 L120,2 L150,2.5 L200,1.5 L240,2.2 L280,1.8 L320,2.5 L360,2 L400,1.5 L440,2.3 L480,2 L520,2.6 L560,1.5 L600,2.2 L640,1.8 L680,2.5 L720,2 L760,1.5 L800,2.3 L840,2 L880,2.6 L920,1.5 L960,2.2 L1000,1.8 L1040,2.5 L1080,2 L1120,1.5 L1160,2.3 L1200,2 L1240,2.6 L1280,1.5 L1320,2.2 L1360,1.8 L1400,2.5 L1440,2" stroke="#39ff14" stroke-width="1.5" fill="transparent"/>
</svg>
