<svg width="100%" height="4px" viewBox="0 0 1440 4" xmlns="http://www.w3.org/2000/svg">
  <rect width="1440" height="4" fill="#000"/>
  <path d="M0,2 L15,1.2 L30,2.5 L45,1.1 L60,2.8 L75,1.3 L90,2.6 L105,1.1 L120,2.7 L135,1.2 L150,2.5 L165,1.1 L180,2.6 L195,1.3 L210,2.8 L225,1.1 L240,2.5 L255,1.2 L270,2.6 L285,1.1 L300,2.7 L315,1.3 L330,2.5 L345,1.2 L360,2.6 L375,1.1 L390,2.7 L405,1.2 L420,2.5 L435,1.1 L450,2.6 L465,1.3 L480,2.8 L495,1.1 L510,2.5 L525,1.2 L540,2.6 L555,1.1 L570,2.7 L585,1.3 L600,2.5 L615,1.2 L630,2.6 L645,1.1 L660,2.7 L675,1.2 L690,2.5 L705,1.1 L720,2.6 L735,1.3 L750,2.8 L765,1.1 L780,2.5 L795,1.2 L810,2.6 L825,1.1 L840,2.7 L855,1.3 L870,2.5 L885,1.2 L900,2.6 L915,1.1 L930,2.7 L945,1.2 L960,2.5 L975,1.1 L990,2.6 L1005,1.3 L1020,2.8 L1035,1.1 L1050,2.5 L1065,1.2 L1080,2.6 L1095,1.1 L1110,2.7 L1125,1.3 L1140,2.5 L1155,1.2 L1170,2.6 L1185,1.1 L1200,2.7 L1215,1.2 L1230,2.5 L1245,1.1 L1260,2.6 L1275,1.3 L1290,2.8 L1305,1.1 L1320,2.5 L1335,1.2 L1350,2.6 L1365,1.1 L1380,2.7 L1395,1.2 L1410,2.5 L1425,1.1 L1440,2.6" stroke="#ff0055" stroke-width="1.5" fill="transparent"/>
</svg>
